<svg width="32" height="33" viewBox="0 0 32 33" fill="none" xmlns="http://www.w3.org/2000/svg">
<path d="M4.90265 20H27.5026V21.5C27.5026 22.5609 27.0812 23.5783 26.3311 24.3284C25.5809 25.0786 24.5635 25.5 23.5026 25.5H8.90265C7.84178 25.5 6.82436 25.0786 6.07422 24.3284C5.32407 23.5783 4.90265 22.5609 4.90265 21.5V20Z" fill="url(#paint0_linear_7_147)" stroke="black" stroke-width="2" stroke-linecap="round" stroke-linejoin="round"/>
<path d="M24.8026 13.9H27.4027C27.805 13.8866 28.2058 13.9543 28.5814 14.099C28.957 14.2438 29.2997 14.4626 29.5889 14.7425C29.8782 15.0224 30.1081 15.3577 30.2651 15.7284C30.4221 16.099 30.5029 16.4975 30.5026 16.9C30.5026 17.7222 30.176 18.5107 29.5947 19.092C29.0133 19.6734 28.2248 20 27.4027 20H5.00264C4.60012 20.0002 4.20169 19.9194 3.83104 19.7625C3.46039 19.6055 3.12509 19.3755 2.84517 19.0863C2.56525 18.797 2.34639 18.4544 2.20165 18.0788C2.0569 17.7032 1.98922 17.3023 2.00264 16.9C1.98867 16.5023 2.05674 16.1059 2.20256 15.7356C2.34838 15.3653 2.56886 15.029 2.85027 14.7476C3.13168 14.4662 3.46798 14.2457 3.83827 14.0999C4.20857 13.9541 4.60491 13.886 5.00264 13.9H13.8027" fill="url(#paint1_linear_7_147)"/>
<path d="M24.8026 13.9H27.4027C27.805 13.8866 28.2058 13.9543 28.5814 14.099C28.957 14.2438 29.2997 14.4626 29.5889 14.7425C29.8782 15.0224 30.1081 15.3577 30.2651 15.7284C30.4221 16.099 30.5029 16.4975 30.5026 16.9C30.5026 17.7222 30.176 18.5107 29.5947 19.092C29.0133 19.6734 28.2248 20 27.4027 20H5.00264C4.60012 20.0002 4.20169 19.9194 3.83104 19.7625C3.46039 19.6055 3.12509 19.3755 2.84517 19.0863C2.56525 18.797 2.34639 18.4544 2.20165 18.0788C2.0569 17.7032 1.98922 17.3023 2.00264 16.9C1.98867 16.5023 2.05674 16.1059 2.20256 15.7356C2.34838 15.3653 2.56886 15.029 2.85027 14.7476C3.13168 14.4662 3.46798 14.2457 3.83827 14.0999C4.20857 13.9541 4.60491 13.886 5.00264 13.9H13.8027" stroke="black" stroke-width="2" stroke-linecap="round" stroke-linejoin="round"/>
<path d="M30.5026 11.9C30.4951 12.4275 30.2795 12.9307 29.9027 13.3C29.7273 13.4963 29.5111 13.6517 29.2692 13.7554C29.0273 13.8591 28.7657 13.9084 28.5026 13.9H23.3027L19.9027 17.8L16.5026 13.9H3.90266C3.6445 13.9004 3.38897 13.8481 3.15168 13.7464C2.91439 13.6448 2.7003 13.4958 2.5225 13.3086C2.3447 13.1215 2.20691 12.9 2.11753 12.6579C2.02815 12.4157 1.98905 12.1578 2.00263 11.9C1.98905 11.6422 2.02815 11.3843 2.11753 11.1422C2.20691 10.9 2.3447 10.6785 2.5225 10.4914C2.7003 10.3042 2.91439 10.1553 3.15168 10.0536C3.38897 9.9519 3.6445 9.89964 3.90266 9.9H28.5026C29.0331 9.9 29.5418 10.1107 29.9169 10.4858C30.292 10.8609 30.5026 11.3696 30.5026 11.9Z" fill="white" stroke="black" stroke-width="2" stroke-linecap="round" stroke-linejoin="round"/>
<path d="M13.5026 1H19.0026C21.2835 1 23.4709 1.90606 25.0837 3.51888C26.6966 5.13169 27.6027 7.31914 27.6027 9.60001H4.90265C4.90265 7.31914 5.8087 5.13169 7.42151 3.51888C9.03432 1.90606 11.2218 1 13.5026 1Z" fill="url(#paint2_linear_7_147)" stroke="black" stroke-width="2" stroke-linecap="round" stroke-linejoin="round"/>
<path d="M10.6027 5.5L11.8027 6.8" stroke="black" stroke-width="2" stroke-linecap="round" stroke-linejoin="round"/>
<path d="M21.4026 5L22.7026 6.39999" stroke="black" stroke-width="2" stroke-linecap="round" stroke-linejoin="round"/>
<path d="M15.4026 5.60001L16.8026 4.3" stroke="black" stroke-width="2" stroke-linecap="round" stroke-linejoin="round"/>
<defs>
<linearGradient id="paint0_linear_7_147" x1="4.98124" y1="20.8554" x2="7.94089" y2="31.1358" gradientUnits="userSpaceOnUse">
<stop stop-color="#FFA654"/>
<stop offset="1" stop-color="#F26702"/>
</linearGradient>
<linearGradient id="paint1_linear_7_147" x1="30.5026" y1="20" x2="28.0045" y2="8.33122" gradientUnits="userSpaceOnUse">
<stop stop-color="#FFD15C"/>
<stop offset="1" stop-color="#F3AF00"/>
</linearGradient>
<linearGradient id="paint2_linear_7_147" x1="4.98159" y1="2.33752" x2="11.4781" y2="16.833" gradientUnits="userSpaceOnUse">
<stop stop-color="#FFA654"/>
<stop offset="1" stop-color="#F26702"/>
</linearGradient>
</defs>
</svg>
